<?xml version="1.0" standalone="no"?>
<!DOCTYPE svg PUBLIC "-//W3C//DTD SVG 20010904//EN"
 "http://www.w3.org/TR/2001/REC-SVG-20010904/DTD/svg10.dtd">
<svg version="1.0" xmlns="http://www.w3.org/2000/svg"
 width="512.000000pt" height="512.000000pt" viewBox="0 0 512.000000 512.000000"
 preserveAspectRatio="xMidYMid meet">
<metadata>
Created by potrace 1.11, written by Peter Selinger 2001-2013
</metadata>
<g transform="translate(0.000000,512.000000) scale(0.100000,-0.100000)"
fill="#000000" stroke="none">
<path d="M2430 5114 c-346 -23 -676 -124 -837 -256 -223 -184 -399 -627 -453
-1140 -20 -190 -28 -168 116 -302 69 -64 131 -116 138 -116 22 0 193 169 235
231 52 77 52 100 6 288 -81 330 -86 493 -17 530 54 29 111 10 307 -99 273
-152 406 -199 591 -207 200 -9 327 24 561 148 326 171 322 169 368 169 120 0
132 -140 45 -505 -48 -198 -51 -236 -25 -290 21 -42 138 -170 215 -235 l46
-39 132 121 132 121 0 46 c0 150 -56 469 -115 666 -100 330 -235 545 -416 663
-119 78 -346 154 -560 187 -103 15 -363 26 -469 19z"/>
<path d="M1976 3259 c-20 -16 -26 -29 -26 -59 0 -85 98 -112 136 -38 20 38 4
90 -32 107 -35 16 -47 14 -78 -10z"/>
<path d="M3063 3270 c-72 -30 -46 -150 32 -150 62 0 98 81 58 128 -21 25 -60
35 -90 22z"/>
<path d="M1951 2694 c-32 -40 -26 -63 28 -113 98 -93 284 -177 441 -202 93
-14 272 -6 360 16 87 22 272 114 343 171 48 38 57 51 57 78 0 85 -70 102 -154
37 -73 -56 -169 -106 -256 -133 -63 -19 -97 -23 -215 -23 -120 0 -150 3 -210
23 -83 28 -197 87 -262 137 -58 44 -102 47 -132 9z"/>
<path d="M1585 2263 c-215 -45 -279 -61 -384 -94 -126 -40 -232 -90 -285 -133
l-28 -24 107 -58 c184 -100 625 -393 625 -415 0 -3 -52 -25 -115 -49 -229 -85
-344 -192 -412 -387 l-27 -78 -4 -492 c-4 -487 -3 -492 17 -512 l21 -21 1465
0 1465 0 16 25 c14 21 15 77 12 512 l-4 488 -26 75 c-38 107 -74 167 -144 235
-69 69 -140 109 -284 164 l-102 38 109 80 c191 142 439 299 576 364 26 13 47
26 47 30 0 13 -62 55 -135 92 -124 62 -420 147 -569 163 l-51 5 -53 -66 c-86
-106 -236 -226 -359 -289 l-53 -26 0 -108 c0 -193 -39 -304 -139 -402 -184
-179 -467 -171 -643 18 -90 96 -118 183 -118 361 l0 126 -65 34 c-101 52 -215
142 -318 251 -51 55 -100 99 -108 99 -8 -1 -23 -3 -34 -6z m597 -1497 c11 -52
42 -93 96 -127 45 -29 92 -38 92 -19 0 5 16 28 36 49 92 102 251 90 323 -24
27 -43 27 -43 62 -31 77 27 149 111 149 174 0 26 10 27 81 6 139 -41 239 -163
239 -291 0 -74 -52 -179 -111 -222 l-30 -22 -54 50 c-61 55 -135 95 -216 116
-83 22 -100 20 -133 -21 -36 -45 -97 -73 -159 -74 -62 0 -107 21 -153 73 l-37
41 -65 -12 c-83 -14 -191 -67 -260 -128 l-53 -47 -47 50 c-61 65 -86 132 -80
216 2 34 13 80 23 102 38 79 132 153 222 174 57 14 66 10 75 -33z"/>
</g>
</svg>
